<svg xmlns="http://www.w3.org/2000/svg" width="1280" height="437" viewBox="0 0 1280 437"><defs><style>.a{fill:#ffed00;}</style></defs><rect class="a" x="0.5" y="0.5" width="1279" height="436"/><path d="M1279,1V436H1V1H1279m1-1H0V437H1280V0Z"/><path d="M161.26,120.09l35.79,94.53,37.14-94.53h15.1V227.91H239V134.74h-.3l-36.84,93.17h-9.67l-35.48-93.17h-.3v93.17H146.16V120.09Z"/><path d="M317.32,151.05A34.24,34.24,0,0,1,328.87,160,38.72,38.72,0,0,1,336,173a53.85,53.85,0,0,1,0,31.86,38.72,38.72,0,0,1-7.1,13.06,33.41,33.41,0,0,1-11.55,8.83,39.93,39.93,0,0,1-31.56,0,33.41,33.41,0,0,1-11.55-8.83,38.37,38.37,0,0,1-7.1-13.06,53.64,53.64,0,0,1,0-31.86,38.37,38.37,0,0,1,7.1-13.06,34.24,34.24,0,0,1,11.55-8.91,39.16,39.16,0,0,1,31.56,0Zm-27.71,7.55a26.14,26.14,0,0,0-8.53,7.55,34.24,34.24,0,0,0-5.14,10.64,43.57,43.57,0,0,0,0,24.31,34.19,34.19,0,0,0,5.14,10.65,26.14,26.14,0,0,0,8.53,7.55,26.23,26.23,0,0,0,23.86,0,26.24,26.24,0,0,0,8.53-7.55,34.39,34.39,0,0,0,5.13-10.65,43.33,43.33,0,0,0,0-24.31A34.44,34.44,0,0,0,322,166.15a26.24,26.24,0,0,0-8.53-7.55,26.23,26.23,0,0,0-23.86,0Z"/><path d="M412.37,227.91v-14.8h-.3a22.38,22.38,0,0,1-4.45,6.94,29.09,29.09,0,0,1-6.72,5.37,35,35,0,0,1-8.08,3.39,31.32,31.32,0,0,1-8.53,1.21,34.46,34.46,0,0,1-15.48-3.25,31,31,0,0,1-10.95-8.9,38.31,38.31,0,0,1-6.49-13.14,59.79,59.79,0,0,1,0-31.56A38.31,38.31,0,0,1,357.86,160a31.75,31.75,0,0,1,10.95-9,33.81,33.81,0,0,1,15.48-3.32,34.72,34.72,0,0,1,8.53,1.05,28.75,28.75,0,0,1,7.77,3.25,27.34,27.34,0,0,1,6.42,5.36,22.39,22.39,0,0,1,4.3,7.4h.31v-44.7h9.51V227.91ZM360.2,201a33.34,33.34,0,0,0,4.53,10.65,24.89,24.89,0,0,0,7.93,7.62,21.87,21.87,0,0,0,11.63,2.95A25.47,25.47,0,0,0,397,219.22a25.08,25.08,0,0,0,8.46-7.62A31.48,31.48,0,0,0,410.18,201a50.76,50.76,0,0,0,0-24,31.52,31.52,0,0,0-4.68-10.64,25.21,25.21,0,0,0-8.46-7.63,25.58,25.58,0,0,0-12.75-2.94,22,22,0,0,0-11.63,2.94,25,25,0,0,0-7.93,7.63,33.38,33.38,0,0,0-4.53,10.64,51.11,51.11,0,0,0,0,24Z"/><path d="M446.27,202.16a29.17,29.17,0,0,0,4.61,9.89,26.29,26.29,0,0,0,8,7.25,22.4,22.4,0,0,0,11.62,2.87q10.42,0,16.31-5.44A28.54,28.54,0,0,0,495,202.24h9.51q-3,13.29-11.1,20.53T470.5,230a36.2,36.2,0,0,1-15.93-3.25,29.22,29.22,0,0,1-10.94-8.9,38.84,38.84,0,0,1-6.27-13.14,59.65,59.65,0,0,1-2-15.78,56.51,56.51,0,0,1,2-15.1,40.51,40.51,0,0,1,6.27-13.21,31.38,31.38,0,0,1,10.94-9.37,33.74,33.74,0,0,1,15.93-3.54,30.81,30.81,0,0,1,26.81,13.66,41,41,0,0,1,6,14,61.67,61.67,0,0,1,1.51,16.09H444.83A42,42,0,0,0,446.27,202.16Zm47.11-29.07a28.49,28.49,0,0,0-4.91-8.83,24.22,24.22,0,0,0-7.7-6.19,22,22,0,0,0-10.27-2.34,22.36,22.36,0,0,0-10.41,2.34,24.37,24.37,0,0,0-7.71,6.19,30.8,30.8,0,0,0-5.05,8.91,44,44,0,0,0-2.5,10.34h50.44A34.35,34.35,0,0,0,493.38,173.09Z"/><path d="M526.37,150v18.27h.31a29.89,29.89,0,0,1,11.25-14.65q7.62-5.13,18.19-4.68v9.52a28.75,28.75,0,0,0-11.78,1.73,26.43,26.43,0,0,0-9.13,5.82,26.16,26.16,0,0,0-6,9,30,30,0,0,0-2.11,11.4v41.53h-9.51V150Z"/><path d="M577.26,150v13.44h.3a22.81,22.81,0,0,1,9.66-11.4,28.41,28.41,0,0,1,15.26-4.3,38.41,38.41,0,0,1,13.66,2.11,21.67,21.67,0,0,1,8.83,6,22.15,22.15,0,0,1,4.68,9.44A53,53,0,0,1,631,177.77v50.14H621.5V179.28a44.6,44.6,0,0,0-.91-9.28,19.65,19.65,0,0,0-3.17-7.48,15.39,15.39,0,0,0-6.11-5,22.48,22.48,0,0,0-9.59-1.81,24.2,24.2,0,0,0-10.19,2,22.09,22.09,0,0,0-7.55,5.58,25.62,25.62,0,0,0-4.83,8.46,34.35,34.35,0,0,0-1.89,10.65v45.45h-9.51V150Z"/><path d="M767.14,141.61a30.54,30.54,0,0,0-7.55-8.23,33.77,33.77,0,0,0-9.82-5.06,36.47,36.47,0,0,0-11.25-1.74q-10.71,0-18.42,4.08a36.55,36.55,0,0,0-12.61,10.8,46.57,46.57,0,0,0-7.24,15.17,65.34,65.34,0,0,0,0,34.66,46.41,46.41,0,0,0,7.24,15.25,36.55,36.55,0,0,0,12.61,10.8q7.71,4.07,18.42,4.07a32.75,32.75,0,0,0,13.59-2.71,32.29,32.29,0,0,0,10.42-7.4,37.92,37.92,0,0,0,7.1-11,45.58,45.58,0,0,0,3.47-13.52h10.27a57.86,57.86,0,0,1-4.68,18,44.17,44.17,0,0,1-9.36,13.59A39.67,39.67,0,0,1,755.81,227a47.43,47.43,0,0,1-17.29,3,51,51,0,0,1-22.27-4.6,46.45,46.45,0,0,1-15.93-12.31,52.22,52.22,0,0,1-9.51-17.82,73.08,73.08,0,0,1,0-42.58,53.07,53.07,0,0,1,9.51-17.9,45.9,45.9,0,0,1,15.93-12.38,54.06,54.06,0,0,1,37.3-2.34,43.58,43.58,0,0,1,13.29,6.72,39.26,39.26,0,0,1,10,10.95,36.72,36.72,0,0,1,5.06,15H771.59A34.37,34.37,0,0,0,767.14,141.61Z"/><path d="M813.87,120.09l35.79,94.53,37.14-94.53h15.11V227.91H891.64V134.74h-.31l-36.84,93.17h-9.66l-35.49-93.17H809v93.17H798.77V120.09Z"/><path d="M923.2,162.07a22.15,22.15,0,0,1,6.56-8.15,27.64,27.64,0,0,1,9.74-4.68,47.37,47.37,0,0,1,12.39-1.51,54,54,0,0,1,10.26,1,24.61,24.61,0,0,1,9.22,3.7A20.18,20.18,0,0,1,978,160q2.57,4.91,2.57,12.76v41.38q0,5.73,5.58,5.73a7.37,7.37,0,0,0,3-.6v8c-1.11.2-2.09.36-2.94.45a26.48,26.48,0,0,1-3.25.16,14.29,14.29,0,0,1-5.81-1,7.73,7.73,0,0,1-3.4-2.79,10.39,10.39,0,0,1-1.58-4.3,35.85,35.85,0,0,1-.38-5.51h-.3a66.47,66.47,0,0,1-5.21,6.72,26,26,0,0,1-5.89,4.9,27,27,0,0,1-7.4,3,40.26,40.26,0,0,1-9.89,1.06,39.18,39.18,0,0,1-10.19-1.28,22.91,22.91,0,0,1-8.31-4.08,19.45,19.45,0,0,1-5.59-7.1,23.57,23.57,0,0,1-2-10.19q0-8.16,3.63-12.76a22.74,22.74,0,0,1,9.59-7,54.83,54.83,0,0,1,13.44-3.4q7.47-1,15.17-1.89c2-.2,3.78-.45,5.29-.75a9.12,9.12,0,0,0,3.77-1.59,7.23,7.23,0,0,0,2.34-3.09,13.43,13.43,0,0,0,.83-5.14,17.41,17.41,0,0,0-1.58-7.92,12.63,12.63,0,0,0-4.38-4.91,17.65,17.65,0,0,0-6.49-2.49,44.2,44.2,0,0,0-7.93-.68q-9.06,0-14.8,4.3t-6,13.82h-9.51A31.44,31.44,0,0,1,923.2,162.07Zm47.56,23.25a5.42,5.42,0,0,1-3.47,2.42,34.09,34.09,0,0,1-4.53,1.06q-6,1-12.46,1.88a68.51,68.51,0,0,0-11.7,2.5,22.83,22.83,0,0,0-8.68,4.75q-3.4,3.1-3.4,8.84a13.79,13.79,0,0,0,1.43,6.41A15.59,15.59,0,0,0,931.8,218a16.74,16.74,0,0,0,5.59,3.09,20.24,20.24,0,0,0,6.49,1.06,32.62,32.62,0,0,0,10.42-1.66,25.54,25.54,0,0,0,8.68-4.84,23,23,0,0,0,8.08-18V185.32Z"/><path d="M1009.11,120.09v67.65L1052.3,150H1065l-33.22,28.84,35.49,49.08h-11.93l-30.8-42.43-15.41,12.83v29.6H999.6V120.09Z"/><path d="M1082.12,202.16a29.17,29.17,0,0,0,4.61,9.89,26.29,26.29,0,0,0,8,7.25,22.41,22.41,0,0,0,11.63,2.87q10.41,0,16.31-5.44a28.6,28.6,0,0,0,8.15-14.49h9.51q-3,13.29-11.1,20.53T1106.36,230a36.2,36.2,0,0,1-15.93-3.25,29.33,29.33,0,0,1-11-8.9,38.84,38.84,0,0,1-6.27-13.14,59.65,59.65,0,0,1-2-15.78,56.51,56.51,0,0,1,2-15.1,40.51,40.51,0,0,1,6.27-13.21,31.51,31.51,0,0,1,11-9.37,33.74,33.74,0,0,1,15.93-3.54,30.81,30.81,0,0,1,26.8,13.66,40.85,40.85,0,0,1,6,14,61.24,61.24,0,0,1,1.51,16.09h-59.94A42.44,42.44,0,0,0,1082.12,202.16Zm47.11-29.07a28.47,28.47,0,0,0-4.9-8.83,24.33,24.33,0,0,0-7.7-6.19,22.07,22.07,0,0,0-10.27-2.34,22.38,22.38,0,0,0-10.42,2.34,24.22,24.22,0,0,0-7.7,6.19,30.82,30.82,0,0,0-5.06,8.91,43.44,43.44,0,0,0-2.49,10.34h50.43A34.35,34.35,0,0,0,1129.23,173.09Z"/><path d="M177.32,227.66q20.37.5,30.69,11.43t10.31,33.19q0,22.26-10.31,33.19t-30.69,11.44H146.44V227.66Zm-4.25,82a58.29,58.29,0,0,0,16.56-2.07A26.44,26.44,0,0,0,201.07,301a26.9,26.9,0,0,0,6.62-11.62,69.91,69.91,0,0,0,0-34.25,26.94,26.94,0,0,0-6.62-11.63A26.44,26.44,0,0,0,189.63,237a58.31,58.31,0,0,0-16.56-2.06H154.94v74.75Z"/><path d="M238.44,227.66v12.62h-7.87V227.66Zm0,24.75v64.5h-7.87v-64.5Z"/><path d="M260.69,252.41v15.12h.25a24.73,24.73,0,0,1,9.32-12.12,24.3,24.3,0,0,1,15.06-3.88v7.88a23.77,23.77,0,0,0-9.75,1.43,21.85,21.85,0,0,0-7.56,4.82,21.54,21.54,0,0,0-4.94,7.43,24.86,24.86,0,0,0-1.75,9.44v34.38h-7.88v-64.5Z"/><path d="M296.26,295.59a24.06,24.06,0,0,0,3.81,8.19,21.8,21.8,0,0,0,6.62,6,18.49,18.49,0,0,0,9.63,2.38q8.63,0,13.5-4.5a23.67,23.67,0,0,0,6.75-12h7.87q-2.49,11-9.18,17t-18.94,6A30.05,30.05,0,0,1,303.13,316a24.18,24.18,0,0,1-9.06-7.38,32,32,0,0,1-5.19-10.87,49.68,49.68,0,0,1-1.69-13.06,47,47,0,0,1,1.69-12.5,33.5,33.5,0,0,1,5.19-10.94,26,26,0,0,1,9.06-7.75,27.85,27.85,0,0,1,13.19-2.94,25.55,25.55,0,0,1,22.19,11.31,34,34,0,0,1,4.93,11.63,50.83,50.83,0,0,1,1.25,13.31H295.07A34.51,34.51,0,0,0,296.26,295.59Zm39-24.06a23.59,23.59,0,0,0-4.07-7.31,20.17,20.17,0,0,0-6.37-5.13,18.28,18.28,0,0,0-8.5-1.93,18.56,18.56,0,0,0-8.63,1.93,20.17,20.17,0,0,0-6.37,5.13,25.43,25.43,0,0,0-4.19,7.37,36.18,36.18,0,0,0-2.06,8.57h41.75A29,29,0,0,0,335.26,271.53Z"/><path d="M394.69,261.28q-4.37-4.12-12.25-4.12a19.91,19.91,0,0,0-9.87,2.37,21.67,21.67,0,0,0-7.06,6.25,28.14,28.14,0,0,0-4.25,8.81,35.9,35.9,0,0,0,0,20.13,28,28,0,0,0,4.25,8.81,21.44,21.44,0,0,0,7.06,6.25,19.81,19.81,0,0,0,9.87,2.38,17.43,17.43,0,0,0,6.88-1.38,18.55,18.55,0,0,0,5.75-3.81,20.48,20.48,0,0,0,4.12-5.81,21.33,21.33,0,0,0,2-7.38h7.88q-1.63,11.76-8.63,18.31t-18,6.57A30.27,30.27,0,0,1,369.38,316a27.76,27.76,0,0,1-9.56-7.31,32,32,0,0,1-5.88-10.82,44.46,44.46,0,0,1,0-26.37,31.84,31.84,0,0,1,5.88-10.81,28.44,28.44,0,0,1,9.56-7.38,29.7,29.7,0,0,1,13.06-2.75q10.38,0,17.57,5.5t8.56,16.63h-7.88A21.62,21.62,0,0,0,394.69,261.28Z"/><path d="M445.57,252.41V259H432.44v43.5a14,14,0,0,0,1.07,6.06c.7,1.46,2.47,2.28,5.31,2.44a61.07,61.07,0,0,0,6.75-.37v6.62c-1.17,0-2.34,0-3.5.13s-2.34.12-3.5.12q-7.87,0-11-3.06t-3-11.31V259H413.32v-6.62h11.25V233h7.87v19.38Z"/><path d="M497.13,253.28a28.44,28.44,0,0,1,9.56,7.38,32,32,0,0,1,5.88,10.81,44.46,44.46,0,0,1,0,26.37,32.16,32.16,0,0,1-5.88,10.82,27.76,27.76,0,0,1-9.56,7.31A33.07,33.07,0,0,1,471,316a27.76,27.76,0,0,1-9.56-7.31,32,32,0,0,1-5.87-10.82,44.46,44.46,0,0,1,0-26.37,31.82,31.82,0,0,1,5.87-10.81,28.44,28.44,0,0,1,9.56-7.38,32.41,32.41,0,0,1,26.13,0Zm-22.94,6.25a21.77,21.77,0,0,0-7.06,6.25,28.36,28.36,0,0,0-4.25,8.81,35.9,35.9,0,0,0,0,20.13,28.25,28.25,0,0,0,4.25,8.81,21.54,21.54,0,0,0,7.06,6.25,21.68,21.68,0,0,0,19.75,0,21.54,21.54,0,0,0,7.06-6.25,28.25,28.25,0,0,0,4.25-8.81,35.9,35.9,0,0,0,0-20.13,28.36,28.36,0,0,0-4.25-8.81,21.77,21.77,0,0,0-7.06-6.25,21.76,21.76,0,0,0-19.75,0Z"/><path d="M533.44,252.41v15.12h.25A24.71,24.71,0,0,1,543,255.41a24.35,24.35,0,0,1,15.07-3.88v7.88a23.77,23.77,0,0,0-9.75,1.43,22,22,0,0,0-7.57,4.82,21.66,21.66,0,0,0-4.93,7.43,24.86,24.86,0,0,0-1.75,9.44v34.38h-7.88v-64.5Z"/><path d="M566.56,252.41l21.25,55,19.88-55h7.87l-28,74.25a70,70,0,0,1-3.25,6.81,15.49,15.49,0,0,1-3.31,4.25,11,11,0,0,1-4.25,2.25,23.19,23.19,0,0,1-6.19.69l-3.68-.19a7.6,7.6,0,0,1-2.32-.44v-6.62c.92.16,1.82.31,2.69.43a18.32,18.32,0,0,0,2.69.19,10.65,10.65,0,0,0,4.31-.75,9.13,9.13,0,0,0,2.94-2.06,11.9,11.9,0,0,0,2.12-3.19c.59-1.25,1.21-2.62,1.88-4.12l2.75-7.25-25.75-64.25Z"/><path d="M665.44,299a18.84,18.84,0,0,0,6.19,7.38,25.71,25.71,0,0,0,9.31,3.93,52.65,52.65,0,0,0,11.5,1.19,32.33,32.33,0,0,0,7.62-1,26.29,26.29,0,0,0,7.69-3.19,19.55,19.55,0,0,0,5.94-5.62,14.27,14.27,0,0,0,2.37-8.31,12.22,12.22,0,0,0-1.68-6.5,15.47,15.47,0,0,0-4.38-4.63,25.63,25.63,0,0,0-5.94-3.06,58.19,58.19,0,0,0-6.37-1.94l-19.88-4.87a60.28,60.28,0,0,1-7.56-2.5,21.74,21.74,0,0,1-6.44-4,19,19,0,0,1-4.43-6.13,20.83,20.83,0,0,1-1.69-8.87,28.09,28.09,0,0,1,1.25-7.63,21.15,21.15,0,0,1,4.69-8.25,27.27,27.27,0,0,1,9.43-6.56q6-2.68,15.38-2.69a45.11,45.11,0,0,1,12.62,1.75,31.2,31.2,0,0,1,10.5,5.25,25.29,25.29,0,0,1,9.88,20.75h-8.5a20.86,20.86,0,0,0-2.31-8.94,20,20,0,0,0-5.38-6.37,23.64,23.64,0,0,0-7.62-3.88,31.18,31.18,0,0,0-9.07-1.31,37,37,0,0,0-8.43.94,20.93,20.93,0,0,0-7.13,3,15.52,15.52,0,0,0-4.94,5.44,17,17,0,0,0-1.87,8.37,12.88,12.88,0,0,0,1.06,5.44,11.61,11.61,0,0,0,2.94,3.94,15.49,15.49,0,0,0,4.31,2.62,32.77,32.77,0,0,0,5.19,1.63l21.75,5.37a65.16,65.16,0,0,1,8.94,3.06,29.59,29.59,0,0,1,7.37,4.5,19,19,0,0,1,5,6.57,22,22,0,0,1,1.81,9.37,33.37,33.37,0,0,1-.31,4,20.19,20.19,0,0,1-1.5,5.31,26.44,26.44,0,0,1-3.37,5.69,21.23,21.23,0,0,1-6,5.19,35.05,35.05,0,0,1-9.44,3.75,55.06,55.06,0,0,1-13.5,1.44,56.21,56.21,0,0,1-14.63-1.82,31.38,31.38,0,0,1-11.5-5.56,24.61,24.61,0,0,1-7.31-9.62,31.55,31.55,0,0,1-2.19-14.13h8.5A25.13,25.13,0,0,0,665.44,299Z"/><path d="M762.06,252.41V259H748.94v43.5a14,14,0,0,0,1.06,6.06c.71,1.46,2.48,2.28,5.31,2.44a61.07,61.07,0,0,0,6.75-.37v6.62c-1.17,0-2.33,0-3.5.13s-2.33.12-3.5.12q-7.87,0-11-3.06t-3-11.31V259H729.81v-6.62h11.25V233h7.88v19.38Z"/><path d="M780.56,252.41v15.12h.25a24.77,24.77,0,0,1,9.31-12.12,24.35,24.35,0,0,1,15.07-3.88v7.88a23.77,23.77,0,0,0-9.75,1.43,22,22,0,0,0-7.57,4.82,21.66,21.66,0,0,0-4.93,7.43,24.86,24.86,0,0,0-1.75,9.44v34.38h-7.88v-64.5Z"/><path d="M857.56,316.91V305.28h-.25a22.34,22.34,0,0,1-9.06,9.94,25.88,25.88,0,0,1-13.19,3.44A28.84,28.84,0,0,1,824.62,317a17.49,17.49,0,0,1-7-4.81,19.7,19.7,0,0,1-3.94-7.63,38.46,38.46,0,0,1-1.25-10.25V252.41h7.88v42q.26,8.74,4.06,13.25t13.19,4.5a16.62,16.62,0,0,0,8.75-2.19,18.59,18.59,0,0,0,6-5.81,26.28,26.28,0,0,0,3.5-8.32,40.78,40.78,0,0,0,1.12-9.56V252.41h7.88v64.5Z"/><path d="M919.06,261.28q-4.38-4.12-12.25-4.12a20,20,0,0,0-9.88,2.37,21.87,21.87,0,0,0-7.06,6.25,28.58,28.58,0,0,0-4.25,8.81,35.9,35.9,0,0,0,0,20.13,28.47,28.47,0,0,0,4.25,8.81,21.64,21.64,0,0,0,7.06,6.25,19.85,19.85,0,0,0,9.88,2.38,17.42,17.42,0,0,0,6.87-1.38,18.43,18.43,0,0,0,5.75-3.81,20.51,20.51,0,0,0,4.13-5.81,21.56,21.56,0,0,0,2-7.38h7.87q-1.62,11.76-8.62,18.31t-18,6.57A30.24,30.24,0,0,1,893.75,316a27.7,27.7,0,0,1-9.57-7.31,32,32,0,0,1-5.87-10.82,44.46,44.46,0,0,1,0-26.37,31.82,31.82,0,0,1,5.87-10.81,28.38,28.38,0,0,1,9.57-7.38,29.67,29.67,0,0,1,13.06-2.75q10.37,0,17.56,5.5t8.56,16.63h-7.87A21.76,21.76,0,0,0,919.06,261.28Z"/><path d="M969.93,252.41V259H956.81v43.5a14,14,0,0,0,1.06,6.06c.71,1.46,2.48,2.28,5.31,2.44a61.07,61.07,0,0,0,6.75-.37v6.62c-1.17,0-2.33,0-3.5.13s-2.33.12-3.5.12q-7.87,0-11-3.06t-3-11.31V259H937.68v-6.62h11.25V233h7.88v19.38Z"/><path d="M1026.18,316.91V305.28h-.25a22.28,22.28,0,0,1-9.06,9.94,25.88,25.88,0,0,1-13.19,3.44A28.84,28.84,0,0,1,993.24,317a17.56,17.56,0,0,1-7-4.81,19.55,19.55,0,0,1-3.93-7.63,38.06,38.06,0,0,1-1.25-10.25V252.41h7.87v42q.26,8.74,4.06,13.25t13.19,4.5a16.62,16.62,0,0,0,8.75-2.19,18.59,18.59,0,0,0,6-5.81,26.28,26.28,0,0,0,3.5-8.32,40.78,40.78,0,0,0,1.13-9.56V252.41h7.87v64.5Z"/><path d="M1055.43,252.41v15.12h.25a24.71,24.71,0,0,1,9.31-12.12,24.34,24.34,0,0,1,15.06-3.88v7.88a23.82,23.82,0,0,0-9.75,1.43,21.63,21.63,0,0,0-12.5,12.25,25.05,25.05,0,0,0-1.75,9.44v34.38h-7.87v-64.5Z"/><path d="M1091,295.59a24.06,24.06,0,0,0,3.81,8.19,21.72,21.72,0,0,0,6.63,6,18.45,18.45,0,0,0,9.62,2.38q8.63,0,13.5-4.5a23.67,23.67,0,0,0,6.75-12h7.88q-2.51,11-9.19,17t-18.94,6a30,30,0,0,1-13.18-2.69,24.29,24.29,0,0,1-9.07-7.38,32,32,0,0,1-5.18-10.87,49.26,49.26,0,0,1-1.69-13.06,46.63,46.63,0,0,1,1.69-12.5,33.49,33.49,0,0,1,5.18-10.94,26.12,26.12,0,0,1,9.07-7.75,27.81,27.81,0,0,1,13.18-2.94,25.55,25.55,0,0,1,22.19,11.31,34,34,0,0,1,4.94,11.63,50.83,50.83,0,0,1,1.25,13.31H1089.8A35,35,0,0,0,1091,295.59Zm39-24.06a23.57,23.57,0,0,0-4.06-7.31,20.21,20.21,0,0,0-6.38-5.13,18.25,18.25,0,0,0-8.5-1.93,18.52,18.52,0,0,0-8.62,1.93,20.21,20.21,0,0,0-6.38,5.13,25.41,25.41,0,0,0-4.18,7.37,36.2,36.2,0,0,0-2.07,8.57h41.75A28.33,28.33,0,0,0,1130,271.53Z"/></svg>