<svg xmlns="http://www.w3.org/2000/svg" width="1280" height="640" viewBox="0 0 1280 640"><defs><style>.a{fill:#ffed00;}</style></defs><rect class="a" x="0.5" y="0.5" width="1279" height="639"/><path d="M1279,1V639H1V1H1279m1-1H0V640H1280V0Z"/><path d="M161.26,186.09l35.79,94.53,37.14-94.53h15.1V293.91H239V200.74h-.3l-36.84,93.17h-9.67l-35.48-93.17h-.3v93.17H146.16V186.09Z"/><path d="M317.32,217.05A34.24,34.24,0,0,1,328.87,226,38.62,38.62,0,0,1,336,239a53.85,53.85,0,0,1,0,31.86,38.72,38.72,0,0,1-7.1,13.06,33.41,33.41,0,0,1-11.55,8.83,39.93,39.93,0,0,1-31.56,0,33.41,33.41,0,0,1-11.55-8.83,38.37,38.37,0,0,1-7.1-13.06,53.64,53.64,0,0,1,0-31.86,38.28,38.28,0,0,1,7.1-13.06,34.24,34.24,0,0,1,11.55-8.91,39.16,39.16,0,0,1,31.56,0Zm-27.71,7.55a26.14,26.14,0,0,0-8.53,7.55,34.24,34.24,0,0,0-5.14,10.64,43.57,43.57,0,0,0,0,24.31,34.19,34.19,0,0,0,5.14,10.65,26.14,26.14,0,0,0,8.53,7.55,26.23,26.23,0,0,0,23.86,0,26.24,26.24,0,0,0,8.53-7.55,34.39,34.39,0,0,0,5.13-10.65,43.33,43.33,0,0,0,0-24.31A34.44,34.44,0,0,0,322,232.15a26.24,26.24,0,0,0-8.53-7.55,26.23,26.23,0,0,0-23.86,0Z"/><path d="M412.37,293.91v-14.8h-.3a22.38,22.38,0,0,1-4.45,6.94,28.78,28.78,0,0,1-6.72,5.36,34.14,34.14,0,0,1-8.08,3.4,31.32,31.32,0,0,1-8.53,1.21,34.46,34.46,0,0,1-15.48-3.25,30.91,30.91,0,0,1-10.95-8.91,38.17,38.17,0,0,1-6.49-13.13,59.79,59.79,0,0,1,0-31.56A38.31,38.31,0,0,1,357.86,226a31.75,31.75,0,0,1,10.95-9,33.81,33.81,0,0,1,15.48-3.32,34.72,34.72,0,0,1,8.53,1.05,28.75,28.75,0,0,1,7.77,3.25,27.34,27.34,0,0,1,6.42,5.36,22.39,22.39,0,0,1,4.3,7.4h.31v-44.7h9.51V293.91ZM360.2,267a33.34,33.34,0,0,0,4.53,10.65,24.89,24.89,0,0,0,7.93,7.62,21.87,21.87,0,0,0,11.63,2.95A25.47,25.47,0,0,0,397,285.22a25.08,25.08,0,0,0,8.46-7.62A31.48,31.48,0,0,0,410.18,267a50.76,50.76,0,0,0,0-24,31.52,31.52,0,0,0-4.68-10.64,25.21,25.21,0,0,0-8.46-7.63,25.58,25.58,0,0,0-12.75-2.94,22,22,0,0,0-11.63,2.94,25,25,0,0,0-7.93,7.63,33.38,33.38,0,0,0-4.53,10.64,51.11,51.11,0,0,0,0,24Z"/><path d="M446.27,268.16a29.17,29.17,0,0,0,4.61,9.89,26.29,26.29,0,0,0,8,7.25,22.4,22.4,0,0,0,11.62,2.87q10.42,0,16.31-5.44A28.54,28.54,0,0,0,495,268.24h9.51q-3,13.29-11.1,20.53T470.5,296a36.2,36.2,0,0,1-15.93-3.25,29.14,29.14,0,0,1-10.94-8.91,38.7,38.7,0,0,1-6.27-13.13,59.71,59.71,0,0,1-2-15.78,56.51,56.51,0,0,1,2-15.1,40.51,40.51,0,0,1,6.27-13.21,31.38,31.38,0,0,1,10.94-9.37,33.74,33.74,0,0,1,15.93-3.54,30.81,30.81,0,0,1,26.81,13.66,41,41,0,0,1,6,14,61.67,61.67,0,0,1,1.51,16.09H444.83A42,42,0,0,0,446.27,268.16Zm47.11-29.07a28.49,28.49,0,0,0-4.91-8.83,24.22,24.22,0,0,0-7.7-6.19,22,22,0,0,0-10.27-2.34,22.36,22.36,0,0,0-10.41,2.34,24.37,24.37,0,0,0-7.71,6.19,30.8,30.8,0,0,0-5.05,8.91,44,44,0,0,0-2.5,10.34h50.44A34.35,34.35,0,0,0,493.38,239.09Z"/><path d="M526.37,216v18.27h.31a29.89,29.89,0,0,1,11.25-14.65q7.62-5.13,18.19-4.68v9.52a28.75,28.75,0,0,0-11.78,1.73,26.43,26.43,0,0,0-9.13,5.82,26.16,26.16,0,0,0-6,9,30,30,0,0,0-2.11,11.4v41.53h-9.51V216Z"/><path d="M577.26,216v13.44h.3a22.81,22.81,0,0,1,9.66-11.4,28.41,28.41,0,0,1,15.26-4.3,38.41,38.41,0,0,1,13.66,2.11,21.67,21.67,0,0,1,8.83,6,22.15,22.15,0,0,1,4.68,9.44A53,53,0,0,1,631,243.77v50.14H621.5V245.28a44.6,44.6,0,0,0-.91-9.28,19.65,19.65,0,0,0-3.17-7.48,15.39,15.39,0,0,0-6.11-5,22.48,22.48,0,0,0-9.59-1.81,24.2,24.2,0,0,0-10.19,2,22.09,22.09,0,0,0-7.55,5.58,25.62,25.62,0,0,0-4.83,8.46,34.35,34.35,0,0,0-1.89,10.65v45.45h-9.51V216Z"/><path d="M767.14,207.61a30.54,30.54,0,0,0-7.55-8.23,33.77,33.77,0,0,0-9.82-5.06,36.47,36.47,0,0,0-11.25-1.73q-10.71,0-18.42,4.07a36.55,36.55,0,0,0-12.61,10.8,46.57,46.57,0,0,0-7.24,15.17,65.34,65.34,0,0,0,0,34.66,46.41,46.41,0,0,0,7.24,15.25,36.55,36.55,0,0,0,12.61,10.8q7.71,4.07,18.42,4.07a32.75,32.75,0,0,0,13.59-2.71,32.29,32.29,0,0,0,10.42-7.4,37.92,37.92,0,0,0,7.1-10.95,45.58,45.58,0,0,0,3.47-13.52h10.27a57.86,57.86,0,0,1-4.68,18,44.17,44.17,0,0,1-9.36,13.59A39.67,39.67,0,0,1,755.81,293a47.43,47.43,0,0,1-17.29,3,50.89,50.89,0,0,1-22.27-4.61,46.18,46.18,0,0,1-15.93-12.3,52.22,52.22,0,0,1-9.51-17.82,73.08,73.08,0,0,1,0-42.58,53.16,53.16,0,0,1,9.51-17.9,45.9,45.9,0,0,1,15.93-12.38,54.06,54.06,0,0,1,37.3-2.34,43.58,43.58,0,0,1,13.29,6.72,39.26,39.26,0,0,1,10,10.95,36.72,36.72,0,0,1,5.06,15H771.59A34.37,34.37,0,0,0,767.14,207.61Z"/><path d="M813.87,186.09l35.79,94.53,37.14-94.53h15.11V293.91H891.64V200.74h-.31l-36.84,93.17h-9.66l-35.49-93.17H809v93.17H798.77V186.09Z"/><path d="M923.2,228.07a22.15,22.15,0,0,1,6.56-8.15,27.64,27.64,0,0,1,9.74-4.68,47.37,47.37,0,0,1,12.39-1.51,54,54,0,0,1,10.26,1,24.61,24.61,0,0,1,9.22,3.7A20.18,20.18,0,0,1,978,226q2.57,4.91,2.57,12.76v41.38q0,5.73,5.58,5.73a7.37,7.37,0,0,0,3-.6v8c-1.11.21-2.09.36-2.94.46a29,29,0,0,1-3.25.15,14.29,14.29,0,0,1-5.81-1,7.73,7.73,0,0,1-3.4-2.79,10.39,10.39,0,0,1-1.58-4.3,35.85,35.85,0,0,1-.38-5.51h-.3a66.47,66.47,0,0,1-5.21,6.72,26,26,0,0,1-5.89,4.9,27,27,0,0,1-7.4,3,40.26,40.26,0,0,1-9.89,1.06,39.18,39.18,0,0,1-10.19-1.28,22.91,22.91,0,0,1-8.31-4.08,19.45,19.45,0,0,1-5.59-7.1,23.57,23.57,0,0,1-2-10.19q0-8.16,3.63-12.76a22.74,22.74,0,0,1,9.59-7,54.83,54.83,0,0,1,13.44-3.4q7.47-1,15.17-1.89c2-.2,3.78-.45,5.29-.75a9.12,9.12,0,0,0,3.77-1.59,7.23,7.23,0,0,0,2.34-3.09,13.43,13.43,0,0,0,.83-5.14,17.41,17.41,0,0,0-1.58-7.92,12.56,12.56,0,0,0-4.38-4.91,17.65,17.65,0,0,0-6.49-2.49,43.31,43.31,0,0,0-7.93-.68q-9.06,0-14.8,4.3t-6,13.82h-9.51A31.44,31.44,0,0,1,923.2,228.07Zm47.56,23.25a5.42,5.42,0,0,1-3.47,2.42,34.09,34.09,0,0,1-4.53,1.06q-6,1-12.46,1.88a68.51,68.51,0,0,0-11.7,2.5,22.83,22.83,0,0,0-8.68,4.75q-3.4,3.1-3.4,8.84a13.79,13.79,0,0,0,1.43,6.41A15.59,15.59,0,0,0,931.8,284a16.92,16.92,0,0,0,5.59,3.09,20.24,20.24,0,0,0,6.49,1.06,32.62,32.62,0,0,0,10.42-1.66,25.69,25.69,0,0,0,8.68-4.83,23.51,23.51,0,0,0,5.89-7.71,23.28,23.28,0,0,0,2.19-10.26V251.32Z"/><path d="M1009.11,186.09v67.65L1052.3,216H1065l-33.22,28.84,35.49,49.08h-11.93l-30.8-42.43-15.41,12.83v29.6H999.6V186.09Z"/><path d="M1082.12,268.16a29.17,29.17,0,0,0,4.61,9.89,26.29,26.29,0,0,0,8,7.25,22.41,22.41,0,0,0,11.63,2.87q10.41,0,16.31-5.44a28.6,28.6,0,0,0,8.15-14.49h9.51q-3,13.29-11.1,20.53T1106.36,296a36.2,36.2,0,0,1-15.93-3.25,29.26,29.26,0,0,1-11-8.91,38.7,38.7,0,0,1-6.27-13.13,59.71,59.71,0,0,1-2-15.78,56.51,56.51,0,0,1,2-15.1,40.51,40.51,0,0,1,6.27-13.21,31.51,31.51,0,0,1,11-9.37,33.74,33.74,0,0,1,15.93-3.54,30.81,30.81,0,0,1,26.8,13.66,40.85,40.85,0,0,1,6,14,61.24,61.24,0,0,1,1.51,16.09h-59.94A42.44,42.44,0,0,0,1082.12,268.16Zm47.11-29.07a28.47,28.47,0,0,0-4.9-8.83,24.33,24.33,0,0,0-7.7-6.19,22.07,22.07,0,0,0-10.27-2.34,22.38,22.38,0,0,0-10.42,2.34,24.22,24.22,0,0,0-7.7,6.19,30.82,30.82,0,0,0-5.06,8.91,43.44,43.44,0,0,0-2.49,10.34h50.43A34.35,34.35,0,0,0,1129.23,239.09Z"/><path d="M273.77,292.54v13.11H217.5V453.91H202.13V305.65h-56V292.54Z"/><path d="M271.4,415.37a43.77,43.77,0,0,0,6.89,14.81,39.49,39.49,0,0,0,12,10.84q7.23,4.31,17.4,4.3,15.6,0,24.41-8.14t12.21-21.69h14.23q-4.51,19.89-16.61,30.73t-34.24,10.85q-13.79,0-23.84-4.86a43.87,43.87,0,0,1-16.39-13.33,58.1,58.1,0,0,1-9.37-19.67,89,89,0,0,1-3-23.61,84.41,84.41,0,0,1,3-22.6,60.91,60.91,0,0,1,9.37-19.78,47.07,47.07,0,0,1,16.39-14q10.05-5.31,23.84-5.31,14,0,24,5.65a47.8,47.8,0,0,1,16.16,14.8,61.33,61.33,0,0,1,8.92,21A92.2,92.2,0,0,1,359,399.44H269.25A63.19,63.19,0,0,0,271.4,415.37Zm70.51-43.5a42.7,42.7,0,0,0-7.34-13.22A36.59,36.59,0,0,0,323,349.38a33,33,0,0,0-15.37-3.5,33.56,33.56,0,0,0-15.59,3.5,36.59,36.59,0,0,0-11.53,9.27A46.23,46.23,0,0,0,273,372a65.46,65.46,0,0,0-3.73,15.48h75.49A51.49,51.49,0,0,0,341.91,371.87Z"/><path d="M391.07,337.29V357h.67A44.74,44.74,0,0,1,406.55,340q9.15-6.11,23.39-6.1a39.78,39.78,0,0,1,20.9,5.65q9.38,5.65,12.55,17.18a35.73,35.73,0,0,1,15.36-17.18,44.08,44.08,0,0,1,21.7-5.65q38.64,0,38.65,40.91v79.1H524.86V375.48q0-14.46-6.1-22t-21.47-7.57q-9.27,0-15.37,3.5a27,27,0,0,0-9.72,9.38,39.75,39.75,0,0,0-5.08,13.45,81.42,81.42,0,0,0-1.47,15.7v66H451.41v-79.1a49.45,49.45,0,0,0-1.24-11.19,26,26,0,0,0-4.07-9.27,19.42,19.42,0,0,0-7.57-6.21A26.64,26.64,0,0,0,427,345.88a35.18,35.18,0,0,0-15.71,3.28,28.75,28.75,0,0,0-10.84,9,40.09,40.09,0,0,0-6.22,13.55,67.37,67.37,0,0,0-2,17.07v65.09H378V337.29Z"/><path d="M579.1,337.29v22.15h.45a38.05,38.05,0,0,1,16.16-18.87,48.65,48.65,0,0,1,25.42-6.67q13.33,0,23.17,5a47.62,47.62,0,0,1,16.38,13.45A57.2,57.2,0,0,1,670.4,372a89.82,89.82,0,0,1,0,47.23,57.25,57.25,0,0,1-9.72,19.67,46.42,46.42,0,0,1-16.38,13.33q-9.84,4.86-23.17,4.86a52.13,52.13,0,0,1-12.65-1.58,45,45,0,0,1-11.76-4.75,38.75,38.75,0,0,1-9.6-7.91,33.48,33.48,0,0,1-6.44-11.07h-.45v65.09H566V337.29Zm78.08,40.34a49.6,49.6,0,0,0-6.78-15.93,37.29,37.29,0,0,0-11.87-11.41q-7.23-4.41-17.4-4.41-11.75,0-19.66,4.07a34.21,34.21,0,0,0-12.66,10.84,42.83,42.83,0,0,0-6.66,15.82,91.26,91.26,0,0,0-1.92,19,76.64,76.64,0,0,0,2.14,18,46.87,46.87,0,0,0,7,15.93A37.76,37.76,0,0,0,602,440.91q7.79,4.41,19.09,4.41,10.17,0,17.4-4.41A37.4,37.4,0,0,0,650.4,429.5a49.6,49.6,0,0,0,6.78-15.93,76.17,76.17,0,0,0,0-35.94Z"/><path d="M710,292.54V453.91H695.71V292.54Z"/><path d="M740,355.37a33.31,33.31,0,0,1,9.83-12.2,41.52,41.52,0,0,1,14.58-7A71.21,71.21,0,0,1,783,333.9a81.53,81.53,0,0,1,15.36,1.47,37,37,0,0,1,13.79,5.54A30.07,30.07,0,0,1,822,352.32q3.84,7.35,3.85,19.1v61.92q0,8.6,8.36,8.59a10.9,10.9,0,0,0,4.52-.91v12c-1.66.31-3.13.53-4.41.68a42.93,42.93,0,0,1-4.86.23,21.53,21.53,0,0,1-8.7-1.47,11.71,11.71,0,0,1-5.08-4.18,15.71,15.71,0,0,1-2.38-6.44,56.33,56.33,0,0,1-.56-8.25h-.45a97,97,0,0,1-7.8,10.05,39,39,0,0,1-8.81,7.35,41,41,0,0,1-11.08,4.52,60.84,60.84,0,0,1-14.8,1.58,58.47,58.47,0,0,1-15.26-1.92,34.25,34.25,0,0,1-12.43-6.1,29.25,29.25,0,0,1-8.36-10.63,35.34,35.34,0,0,1-3-15.25q0-12.21,5.43-19.1a34.16,34.16,0,0,1,14.35-10.51,82.3,82.3,0,0,1,20.11-5.08q11.19-1.47,22.71-2.83c3-.3,5.65-.67,7.91-1.13a13.78,13.78,0,0,0,5.65-2.37,11,11,0,0,0,3.51-4.63,20.16,20.16,0,0,0,1.24-7.69A26,26,0,0,0,809.28,358a18.84,18.84,0,0,0-6.56-7.35A26.45,26.45,0,0,0,793,346.9a65.42,65.42,0,0,0-11.86-1q-13.56,0-22.15,6.44T750,373H735.71A47.35,47.35,0,0,1,740,355.37Zm71.19,34.8q-1.37,2.49-5.2,3.62a52,52,0,0,1-6.78,1.58q-9,1.59-18.65,2.83a102.06,102.06,0,0,0-17.51,3.73,34.32,34.32,0,0,0-13,7.11Q745,413.67,745,422.27a20.63,20.63,0,0,0,2.15,9.6,23.2,23.2,0,0,0,5.76,7.23,25.18,25.18,0,0,0,8.36,4.64,30.68,30.68,0,0,0,9.72,1.58,48.9,48.9,0,0,0,15.59-2.49,38.33,38.33,0,0,0,13-7.23,34.46,34.46,0,0,0,12.09-26.89V390.17Z"/><path d="M900.46,337.29v12H876.74v78.65c0,4.67.63,8.32,1.92,11s4.48,4.1,9.6,4.4a110.7,110.7,0,0,0,12.2-.67v12c-2.11,0-4.21.08-6.32.23s-4.22.23-6.33.23q-14.23,0-19.89-5.54t-5.42-20.45V349.27H842.16v-12H862.5v-35h14.24v35Z"/><path d="M931.31,415.37a43.6,43.6,0,0,0,6.9,14.81,39.33,39.33,0,0,0,12,10.84q7.23,4.31,17.4,4.3,15.6,0,24.41-8.14t12.21-21.69h14.24q-4.53,19.89-16.62,30.73t-34.24,10.85q-13.79,0-23.84-4.86a43.84,43.84,0,0,1-16.38-13.33A57.93,57.93,0,0,1,918,419.21a89,89,0,0,1-3.05-23.61A84.41,84.41,0,0,1,918,373a60.73,60.73,0,0,1,9.38-19.78,47,47,0,0,1,16.38-14q10.05-5.31,23.84-5.31,14,0,24,5.65a47.8,47.8,0,0,1,16.16,14.8,61.54,61.54,0,0,1,8.93,21,92.2,92.2,0,0,1,2.26,24.07H929.17A63.16,63.16,0,0,0,931.31,415.37Zm70.51-43.5a42.7,42.7,0,0,0-7.34-13.22A36.47,36.47,0,0,0,983,349.38a33,33,0,0,0-15.37-3.5,33.56,33.56,0,0,0-15.59,3.5,36.59,36.59,0,0,0-11.53,9.27A46.46,46.46,0,0,0,932.89,372a65.44,65.44,0,0,0-3.72,15.48h75.48A51.49,51.49,0,0,0,1001.82,371.87Z"/><path d="M1105,360a23.17,23.17,0,0,0-6.66-8,27.77,27.77,0,0,0-9.61-4.63,43.94,43.94,0,0,0-11.53-1.47,46.64,46.64,0,0,0-9.6,1,29.3,29.3,0,0,0-8.93,3.39,19.12,19.12,0,0,0-6.55,6.21,17.1,17.1,0,0,0-2.49,9.49,13.28,13.28,0,0,0,2.38,8,21,21,0,0,0,6,5.53,38.09,38.09,0,0,0,7.91,3.73q4.29,1.47,7.91,2.37l19,4.3a53.75,53.75,0,0,1,12.09,3.28,39,39,0,0,1,10.62,6.21,30.4,30.4,0,0,1,7.57,9.49,28.56,28.56,0,0,1,2.94,13.34q0,9.48-4.29,16.15a35,35,0,0,1-11,10.85,46.69,46.69,0,0,1-15,6,77.69,77.69,0,0,1-16.5,1.81q-20.57,0-33.34-9.72t-14.57-31.19h14.23q.92,14.47,10.51,21.81t23.85,7.35a53.87,53.87,0,0,0,10.73-1.13,34.55,34.55,0,0,0,10.28-3.84,24.55,24.55,0,0,0,7.8-6.9,16.9,16.9,0,0,0,3-10.28,16.41,16.41,0,0,0-2.14-8.7,18.7,18.7,0,0,0-5.77-5.88,36.25,36.25,0,0,0-8.25-3.95q-4.63-1.58-9.38-2.71l-18.3-4.07a104.2,104.2,0,0,1-12.88-4.18,41,41,0,0,1-10.29-5.88,24.75,24.75,0,0,1-6.89-8.59,28.36,28.36,0,0,1-2.49-12.54,28,28,0,0,1,4-15.14,30.76,30.76,0,0,1,10.28-10.17,48,48,0,0,1,14.13-5.65,68,68,0,0,1,15.48-1.81,57.29,57.29,0,0,1,16.38,2.26,37.62,37.62,0,0,1,13.34,7,34.4,34.4,0,0,1,9.15,11.75,42.18,42.18,0,0,1,3.84,16.5H1107.7A26.84,26.84,0,0,0,1105,360Z"/></svg>